<mxfile host="app.diagrams.net" agent="Mozilla/5.0 (Windows NT 10.0; Win64; x64) AppleWebKit/537.36 (KHTML, like Gecko) Chrome/141.0.0.0 Safari/537.36 Edg/141.0.0.0" version="28.2.7">
  <diagram name="Página-1" id="CVc9YKbNPeapLJxcWqnP">
    <mxGraphModel dx="1440" dy="790" grid="1" gridSize="10" guides="1" tooltips="1" connect="1" arrows="1" fold="1" page="1" pageScale="1" pageWidth="827" pageHeight="1169" math="0" shadow="0">
      <root>
        <mxCell id="0" />
        <mxCell id="1" parent="0" />
        <mxCell id="xdLG1zehZu7vWKZEoAAY-2" value="" style="shape=actor;whiteSpace=wrap;html=1;" vertex="1" parent="1">
          <mxGeometry x="90" y="180" width="50" height="60" as="geometry" />
        </mxCell>
        <mxCell id="xdLG1zehZu7vWKZEoAAY-3" value="Vista&lt;div&gt;HTML, CSS, JavaScript&lt;/div&gt;" style="rounded=0;whiteSpace=wrap;html=1;fontSize=14;" vertex="1" parent="1">
          <mxGeometry x="294" y="180" width="146" height="60" as="geometry" />
        </mxCell>
        <mxCell id="xdLG1zehZu7vWKZEoAAY-4" value="&lt;div&gt;Controlador&lt;/div&gt;&lt;div&gt;PHP&lt;/div&gt;" style="rounded=0;whiteSpace=wrap;html=1;fontSize=14;" vertex="1" parent="1">
          <mxGeometry x="247" y="370" width="240" height="60" as="geometry" />
        </mxCell>
        <mxCell id="xdLG1zehZu7vWKZEoAAY-5" value="&lt;font style=&quot;font-size: 14px;&quot;&gt;Modelo&lt;/font&gt;&lt;div&gt;&lt;font style=&quot;font-size: 14px;&quot;&gt;Maria DB&lt;/font&gt;&lt;/div&gt;" style="rounded=0;whiteSpace=wrap;html=1;" vertex="1" parent="1">
          <mxGeometry x="307" y="550" width="120" height="60" as="geometry" />
        </mxCell>
        <mxCell id="xdLG1zehZu7vWKZEoAAY-7" value="" style="strokeWidth=2;html=1;shape=mxgraph.flowchart.database;whiteSpace=wrap;" vertex="1" parent="1">
          <mxGeometry x="650" y="540" width="80" height="80" as="geometry" />
        </mxCell>
        <mxCell id="xdLG1zehZu7vWKZEoAAY-8" value="Usuario" style="text;html=1;whiteSpace=wrap;strokeColor=none;fillColor=none;align=center;verticalAlign=middle;rounded=0;" vertex="1" parent="1">
          <mxGeometry x="85" y="250" width="60" height="30" as="geometry" />
        </mxCell>
        <mxCell id="xdLG1zehZu7vWKZEoAAY-10" value="" style="edgeStyle=none;orthogonalLoop=1;jettySize=auto;html=1;endArrow=classic;startArrow=classic;endSize=8;startSize=8;rounded=0;entryX=0;entryY=0.5;entryDx=0;entryDy=0;exitX=0.9;exitY=0.5;exitDx=0;exitDy=0;exitPerimeter=0;" edge="1" parent="1" source="xdLG1zehZu7vWKZEoAAY-2" target="xdLG1zehZu7vWKZEoAAY-3">
          <mxGeometry width="100" relative="1" as="geometry">
            <mxPoint x="160" y="210" as="sourcePoint" />
            <mxPoint x="260" y="210" as="targetPoint" />
            <Array as="points" />
          </mxGeometry>
        </mxCell>
        <mxCell id="xdLG1zehZu7vWKZEoAAY-11" value="Usuario interactuando con la vista" style="text;html=1;whiteSpace=wrap;strokeColor=none;fillColor=none;align=center;verticalAlign=middle;rounded=0;" vertex="1" parent="1">
          <mxGeometry x="160" y="160" width="100" height="50" as="geometry" />
        </mxCell>
        <mxCell id="xdLG1zehZu7vWKZEoAAY-12" value="" style="edgeStyle=none;orthogonalLoop=1;jettySize=auto;html=1;rounded=0;entryX=0.369;entryY=-0.006;entryDx=0;entryDy=0;entryPerimeter=0;exitX=0.287;exitY=1.027;exitDx=0;exitDy=0;exitPerimeter=0;" edge="1" parent="1" source="xdLG1zehZu7vWKZEoAAY-3" target="xdLG1zehZu7vWKZEoAAY-4">
          <mxGeometry width="100" relative="1" as="geometry">
            <mxPoint x="290" y="260" as="sourcePoint" />
            <mxPoint x="390" y="260" as="targetPoint" />
            <Array as="points" />
          </mxGeometry>
        </mxCell>
        <mxCell id="xdLG1zehZu7vWKZEoAAY-13" value="" style="edgeStyle=none;orthogonalLoop=1;jettySize=auto;html=1;rounded=0;entryX=0.604;entryY=1.027;entryDx=0;entryDy=0;entryPerimeter=0;exitX=0.565;exitY=-0.037;exitDx=0;exitDy=0;exitPerimeter=0;" edge="1" parent="1" source="xdLG1zehZu7vWKZEoAAY-4" target="xdLG1zehZu7vWKZEoAAY-3">
          <mxGeometry width="100" relative="1" as="geometry">
            <mxPoint x="366.74" y="250" as="sourcePoint" />
            <mxPoint x="366.74" y="378" as="targetPoint" />
            <Array as="points" />
          </mxGeometry>
        </mxCell>
        <mxCell id="xdLG1zehZu7vWKZEoAAY-14" value="" style="edgeStyle=none;orthogonalLoop=1;jettySize=auto;html=1;rounded=0;exitX=0.287;exitY=1.027;exitDx=0;exitDy=0;exitPerimeter=0;entryX=0.272;entryY=-0.002;entryDx=0;entryDy=0;entryPerimeter=0;" edge="1" parent="1" target="xdLG1zehZu7vWKZEoAAY-5">
          <mxGeometry width="100" relative="1" as="geometry">
            <mxPoint x="340" y="430" as="sourcePoint" />
            <mxPoint x="340" y="540" as="targetPoint" />
            <Array as="points" />
          </mxGeometry>
        </mxCell>
        <mxCell id="xdLG1zehZu7vWKZEoAAY-15" value="" style="edgeStyle=none;orthogonalLoop=1;jettySize=auto;html=1;rounded=0;entryX=0.559;entryY=1;entryDx=0;entryDy=0;entryPerimeter=0;" edge="1" parent="1" target="xdLG1zehZu7vWKZEoAAY-4">
          <mxGeometry width="100" relative="1" as="geometry">
            <mxPoint x="381" y="550" as="sourcePoint" />
            <mxPoint x="380" y="530" as="targetPoint" />
            <Array as="points">
              <mxPoint x="381" y="500" />
            </Array>
          </mxGeometry>
        </mxCell>
        <mxCell id="xdLG1zehZu7vWKZEoAAY-16" value="" style="edgeStyle=none;orthogonalLoop=1;jettySize=auto;html=1;rounded=0;entryX=-0.009;entryY=0.378;entryDx=0;entryDy=0;entryPerimeter=0;" edge="1" parent="1" target="xdLG1zehZu7vWKZEoAAY-7">
          <mxGeometry width="100" relative="1" as="geometry">
            <mxPoint x="430" y="570" as="sourcePoint" />
            <mxPoint x="540" y="510" as="targetPoint" />
            <Array as="points" />
          </mxGeometry>
        </mxCell>
        <mxCell id="xdLG1zehZu7vWKZEoAAY-17" value="" style="edgeStyle=none;orthogonalLoop=1;jettySize=auto;html=1;rounded=0;exitX=-0.008;exitY=0.618;exitDx=0;exitDy=0;exitPerimeter=0;" edge="1" parent="1" source="xdLG1zehZu7vWKZEoAAY-7">
          <mxGeometry width="100" relative="1" as="geometry">
            <mxPoint x="480" y="590" as="sourcePoint" />
            <mxPoint x="430" y="590" as="targetPoint" />
            <Array as="points" />
          </mxGeometry>
        </mxCell>
        <mxCell id="xdLG1zehZu7vWKZEoAAY-19" value="DataBase" style="text;html=1;whiteSpace=wrap;strokeColor=none;fillColor=none;align=center;verticalAlign=middle;rounded=0;" vertex="1" parent="1">
          <mxGeometry x="660" y="620" width="60" height="30" as="geometry" />
        </mxCell>
        <mxCell id="xdLG1zehZu7vWKZEoAAY-20" value="Solicitando Proceso" style="text;html=1;whiteSpace=wrap;strokeColor=none;fillColor=none;align=center;verticalAlign=middle;rounded=0;" vertex="1" parent="1">
          <mxGeometry x="230" y="270" width="100" height="50" as="geometry" />
        </mxCell>
        <mxCell id="xdLG1zehZu7vWKZEoAAY-21" value="Representación de contenido" style="text;html=1;whiteSpace=wrap;strokeColor=none;fillColor=none;align=center;verticalAlign=middle;rounded=0;" vertex="1" parent="1">
          <mxGeometry x="400" y="270" width="100" height="50" as="geometry" />
        </mxCell>
        <mxCell id="xdLG1zehZu7vWKZEoAAY-22" value="Consultando al modelo para proporcionar datos" style="text;html=1;whiteSpace=wrap;strokeColor=none;fillColor=none;align=center;verticalAlign=middle;rounded=0;" vertex="1" parent="1">
          <mxGeometry x="230" y="460" width="100" height="50" as="geometry" />
        </mxCell>
        <mxCell id="xdLG1zehZu7vWKZEoAAY-23" value="Regresando los datos" style="text;html=1;whiteSpace=wrap;strokeColor=none;fillColor=none;align=center;verticalAlign=middle;rounded=0;" vertex="1" parent="1">
          <mxGeometry x="400" y="460" width="100" height="50" as="geometry" />
        </mxCell>
        <mxCell id="xdLG1zehZu7vWKZEoAAY-24" value="Solicitando datos de la BD" style="text;html=1;whiteSpace=wrap;strokeColor=none;fillColor=none;align=center;verticalAlign=middle;rounded=0;" vertex="1" parent="1">
          <mxGeometry x="480" y="530" width="130" height="50" as="geometry" />
        </mxCell>
        <mxCell id="xdLG1zehZu7vWKZEoAAY-25" value="Respondiendo datos de la BD" style="text;html=1;whiteSpace=wrap;strokeColor=none;fillColor=none;align=center;verticalAlign=middle;rounded=0;" vertex="1" parent="1">
          <mxGeometry x="480" y="585" width="130" height="50" as="geometry" />
        </mxCell>
      </root>
    </mxGraphModel>
  </diagram>
</mxfile>
